# This file uses centimeters as units for non-parametric coordinates.

mtllib Rock2.mtl
g default
v 0.000000 0.168242 -0.759993
v 0.455799 0.387847 -0.365211
v -0.286292 0.276540 -0.418136
v -0.611602 0.081819 -0.437758
v -0.246967 -0.217052 -0.550427
v 0.455798 -0.166097 -0.509657
v 0.419561 0.169227 0.374909
v 0.122822 0.296874 0.284116
v -0.235260 0.222951 -0.042592
v -0.372471 -0.271450 0.024269
v 0.225300 -0.340340 0.412330
v 0.016984 0.093309 0.429634
vt 1.000000 0.500000
vt 0.838104 0.676208
vt 0.088104 0.823792
vt 0.176208 0.500000
vt 0.088104 0.176208
vt 0.838104 0.323792
vt 0.676208 0.500000
vt 0.588104 0.823792
vt 0.338104 0.676208
vt 0.338104 0.323792
vt 0.588104 0.176208
vt 0.500000 0.500000
vt 1.088104 0.823792
vt 1.176208 0.500000
vt 1.088104 0.176208
vn -0.110262 0.917186 -0.382899
vn -0.110262 0.917186 -0.382899
vn -0.110262 0.917186 -0.382899
vn -0.399050 0.723444 -0.563372
vn -0.399050 0.723444 -0.563372
vn -0.399050 0.723444 -0.563372
vn -0.434621 -0.199143 -0.878320
vn -0.434621 -0.199143 -0.878320
vn -0.434621 -0.199143 -0.878320
vn 0.086941 -0.518428 -0.850690
vn 0.086941 -0.518428 -0.850690
vn 0.086941 -0.518428 -0.850690
vn 0.582450 0.205104 -0.786565
vn 0.582450 0.205104 -0.786565
vn 0.582450 0.205104 -0.786565
vn -0.152257 0.986510 0.060135
vn -0.152257 0.986510 0.060135
vn -0.152257 0.986510 0.060135
vn -0.512693 0.837472 0.189173
vn -0.512693 0.837472 0.189173
vn -0.512694 0.837472 0.189173
vn -0.657859 -0.722667 -0.212071
vn -0.657859 -0.722667 -0.212071
vn -0.657859 -0.722667 -0.212071
vn 0.080868 -0.982883 -0.165534
vn 0.080868 -0.982883 -0.165534
vn 0.080868 -0.982883 -0.165534
vn 0.998898 -0.011841 0.045410
vn 0.998898 -0.011841 0.045410
vn 0.998898 -0.011841 0.045410
vn 0.304430 0.909363 0.283517
vn 0.304430 0.909363 0.283517
vn 0.304430 0.909363 0.283517
vn -0.352913 0.918373 0.179005
vn -0.352913 0.918373 0.179005
vn -0.352913 0.918373 0.179005
vn -0.742735 0.287887 0.604538
vn -0.742735 0.287887 0.604538
vn -0.742735 0.287887 0.604538
vn -0.046808 -0.993448 -0.104258
vn -0.046808 -0.993448 -0.104258
vn -0.046808 -0.993448 -0.104258
vn 0.925303 -0.340488 0.166980
vn 0.925303 -0.340488 0.166980
vn 0.925303 -0.340488 0.166980
vn 0.001020 0.581189 0.813768
vn 0.001020 0.581189 0.813768
vn 0.001020 0.581189 0.813768
vn -0.580454 0.651236 0.488841
vn -0.580453 0.651236 0.488841
vn -0.580454 0.651236 0.488841
vn -0.807459 0.293313 0.511837
vn -0.807459 0.293313 0.511837
vn -0.807459 0.293313 0.511837
vn -0.544155 -0.292773 0.786244
vn -0.544155 -0.292773 0.786244
vn -0.544155 -0.292773 0.786244
vn 0.130386 0.023085 0.991194
vn 0.130386 0.023085 0.991194
vn 0.130386 0.023085 0.991195
s off
g pPlatonic1
usemtl initialShadingGroup
f 1/1/1 3/13/2 2/2/3
f 1/1/4 4/14/5 3/13/6
f 1/1/7 5/15/8 4/14/9
f 1/1/10 6/6/11 5/15/12
f 1/1/13 2/2/14 6/6/15
f 2/2/16 3/13/17 8/8/18
f 3/3/19 4/4/20 9/9/21
f 4/4/22 5/5/23 10/10/24
f 5/15/25 6/6/26 11/11/27
f 6/6/28 2/2/29 7/7/30
f 2/2/31 8/8/32 7/7/33
f 3/3/34 9/9/35 8/8/36
f 4/4/37 10/10/38 9/9/39
f 5/5/40 11/11/41 10/10/42
f 6/6/43 7/7/44 11/11/45
f 7/7/46 8/8/47 12/12/48
f 8/8/49 9/9/50 12/12/51
f 9/9/52 10/10/53 12/12/54
f 10/10/55 11/11/56 12/12/57
f 11/11/58 7/7/59 12/12/60
