# This file uses centimeters as units for non-parametric coordinates.

mtllib Rock1.mtl
g default
v 0.000000 0.175121 -1.008203
v 0.455799 0.409764 -0.729540
v -0.286292 0.278437 -0.627880
v -0.611602 0.081819 -0.632850
v -0.246967 -0.217052 -0.745520
v 0.455798 -0.158734 -0.761603
v 0.419561 0.169227 0.459985
v 0.122822 0.297022 0.399992
v -0.235260 0.223266 -0.067389
v -0.372471 -0.271450 0.012200
v 0.225300 -0.340340 0.438149
v 0.016984 0.093309 0.525621
vt 1.000000 0.500000
vt 0.838104 0.676208
vt 0.088104 0.823792
vt 0.176208 0.500000
vt 0.088104 0.176208
vt 0.838104 0.323792
vt 0.676208 0.500000
vt 0.588104 0.823792
vt 0.338104 0.676208
vt 0.338104 0.323792
vt 0.588104 0.176208
vt 0.500000 0.500000
vt 1.088104 0.823792
vt 1.176208 0.500000
vt 1.088104 0.176208
vn -0.212681 0.890585 -0.402027
vn -0.212681 0.890585 -0.402027
vn -0.212681 0.890585 -0.402027
vn -0.434164 0.731627 -0.525570
vn -0.434164 0.731627 -0.525570
vn -0.434164 0.731627 -0.525570
vn -0.475148 -0.263175 -0.839627
vn -0.475148 -0.263175 -0.839627
vn -0.475148 -0.263175 -0.839627
vn 0.028365 -0.568555 -0.822156
vn 0.028365 -0.568555 -0.822156
vn 0.028365 -0.568555 -0.822156
vn 0.502633 0.048681 -0.863128
vn 0.502633 0.048681 -0.863128
vn 0.502633 0.048681 -0.863128
vn -0.167556 0.984650 0.048887
vn -0.167556 0.984650 0.048887
vn -0.167556 0.984650 0.048887
vn -0.514311 0.847653 0.130265
vn -0.514311 0.847653 0.130265
vn -0.514311 0.847653 0.130265
vn -0.654963 -0.738205 -0.161482
vn -0.654963 -0.738205 -0.161482
vn -0.654963 -0.738205 -0.161482
vn 0.078895 -0.987786 -0.134363
vn 0.078895 -0.987786 -0.134363
vn 0.078895 -0.987787 -0.134363
vn 0.999545 -0.001698 0.030106
vn 0.999545 -0.001698 0.030106
vn 0.999545 -0.001698 0.030106
vn 0.354252 0.914443 0.195704
vn 0.354252 0.914443 0.195704
vn 0.354252 0.914443 0.195704
vn -0.352148 0.927776 0.123387
vn -0.352148 0.927776 0.123386
vn -0.352148 0.927776 0.123387
vn -0.826186 0.305320 0.473493
vn -0.826186 0.305320 0.473493
vn -0.826186 0.305320 0.473493
vn -0.057042 -0.995090 -0.080888
vn -0.057042 -0.995090 -0.080888
vn -0.057042 -0.995090 -0.080888
vn 0.925464 -0.358109 0.123595
vn 0.925463 -0.358108 0.123595
vn 0.925463 -0.358109 0.123595
vn 0.044591 0.507499 0.860498
vn 0.044591 0.507499 0.860498
vn 0.044591 0.507499 0.860498
vn -0.673279 0.608672 0.419777
vn -0.673279 0.608673 0.419777
vn -0.673279 0.608673 0.419777
vn -0.850520 0.304845 0.428585
vn -0.850520 0.304845 0.428585
vn -0.850520 0.304845 0.428585
vn -0.559472 -0.413639 0.718257
vn -0.559472 -0.413639 0.718257
vn -0.559472 -0.413639 0.718257
vn 0.180208 -0.110584 0.977393
vn 0.180208 -0.110584 0.977393
vn 0.180208 -0.110584 0.977393
s off
g pPlatonic1
usemtl initialShadingGroup
f 1/1/1 3/13/2 2/2/3
f 1/1/4 4/14/5 3/13/6
f 1/1/7 5/15/8 4/14/9
f 1/1/10 6/6/11 5/15/12
f 1/1/13 2/2/14 6/6/15
f 2/2/16 3/13/17 8/8/18
f 3/3/19 4/4/20 9/9/21
f 4/4/22 5/5/23 10/10/24
f 5/15/25 6/6/26 11/11/27
f 6/6/28 2/2/29 7/7/30
f 2/2/31 8/8/32 7/7/33
f 3/3/34 9/9/35 8/8/36
f 4/4/37 10/10/38 9/9/39
f 5/5/40 11/11/41 10/10/42
f 6/6/43 7/7/44 11/11/45
f 7/7/46 8/8/47 12/12/48
f 8/8/49 9/9/50 12/12/51
f 9/9/52 10/10/53 12/12/54
f 10/10/55 11/11/56 12/12/57
f 11/11/58 7/7/59 12/12/60
