# This file uses centimeters as units for non-parametric coordinates.

mtllib Rock0.mtl
g default
v 0.000000 -0.000586 -0.691604
v 0.455799 0.166997 -0.412941
v -0.286730 0.371374 -0.310900
v -0.613242 -0.077473 -0.314824
v -0.246967 -0.584049 -0.428921
v 0.455798 -0.525731 -0.445005
v 0.763817 0.000000 0.447214
v 0.264234 0.426026 0.407166
v -0.572842 0.351076 0.309663
v -0.722968 -0.525548 0.446979
v 0.273659 -0.586666 0.439013
v -0.000403 -0.010489 0.589583
vt 1.000000 0.500000
vt 0.838104 0.676208
vt 0.088104 0.823792
vt 0.176208 0.500000
vt 0.088104 0.176208
vt 0.838104 0.323792
vt 0.676208 0.500000
vt 0.588104 0.823792
vt 0.338104 0.676208
vt 0.338104 0.323792
vt 0.588104 0.176208
vt 0.500000 0.500000
vt 1.088104 0.823792
vt 1.176208 0.500000
vt 1.088104 0.176208
vn 0.118470 0.753369 -0.646838
vn 0.118470 0.753369 -0.646838
vn 0.118470 0.753369 -0.646838
vn -0.517906 0.383434 -0.764691
vn -0.517906 0.383434 -0.764691
vn -0.517906 0.383434 -0.764691
vn -0.500225 -0.170474 -0.848948
vn -0.500225 -0.170474 -0.848948
vn -0.500225 -0.170474 -0.848948
vn 0.013645 -0.415285 -0.909589
vn 0.013645 -0.415285 -0.909589
vn 0.013645 -0.415285 -0.909589
vn 0.510520 0.039757 -0.858946
vn 0.510520 0.039757 -0.858946
vn 0.510520 0.039757 -0.858946
vn 0.225838 0.942842 -0.245042
vn 0.225838 0.942842 -0.245042
vn 0.225838 0.942842 -0.245042
vn -0.761202 0.556643 -0.332747
vn -0.761202 0.556643 -0.332747
vn -0.761202 0.556643 -0.332747
vn -0.784562 -0.478438 -0.394410
vn -0.784562 -0.478438 -0.394410
vn -0.784562 -0.478438 -0.394410
vn 0.081409 -0.995332 -0.051835
vn 0.081409 -0.995332 -0.051835
vn 0.081409 -0.995332 -0.051835
vn 0.942294 0.015479 -0.334428
vn 0.942294 0.015479 -0.334428
vn 0.942294 0.015479 -0.334428
vn 0.650442 0.754624 -0.086413
vn 0.650442 0.754624 -0.086413
vn 0.650442 0.754624 -0.086413
vn -0.088242 0.996066 -0.008104
vn -0.088242 0.996066 -0.008104
vn -0.088242 0.996066 -0.008104
vn -0.985760 0.161450 -0.047022
vn -0.985760 0.161450 -0.047022
vn -0.985760 0.161450 -0.047022
vn -0.060908 -0.997580 0.033527
vn -0.060908 -0.997580 0.033527
vn -0.060908 -0.997580 0.033527
vn 0.761714 -0.637989 0.112964
vn 0.761714 -0.637989 0.112964
vn 0.761714 -0.637989 0.112964
vn 0.171453 0.289575 0.941674
vn 0.171453 0.289575 0.941674
vn 0.171453 0.289575 0.941674
vn -0.143094 0.454213 0.879326
vn -0.143094 0.454213 0.879326
vn -0.143094 0.454213 0.879326
vn -0.325277 0.200462 0.924127
vn -0.325277 0.200462 0.924127
vn -0.325277 0.200462 0.924127
vn -0.007998 -0.256385 0.966542
vn -0.007998 -0.256385 0.966542
vn -0.007998 -0.256385 0.966542
vn 0.182798 -0.166271 0.968988
vn 0.182798 -0.166271 0.968988
vn 0.182798 -0.166271 0.968989
s off
g Rock0:pPlatonic1
usemtl initialShadingGroup
f 1/1/1 3/13/2 2/2/3
f 1/1/4 4/14/5 3/13/6
f 1/1/7 5/15/8 4/14/9
f 1/1/10 6/6/11 5/15/12
f 1/1/13 2/2/14 6/6/15
f 2/2/16 3/13/17 8/8/18
f 3/3/19 4/4/20 9/9/21
f 4/4/22 5/5/23 10/10/24
f 5/15/25 6/6/26 11/11/27
f 6/6/28 2/2/29 7/7/30
f 2/2/31 8/8/32 7/7/33
f 3/3/34 9/9/35 8/8/36
f 4/4/37 10/10/38 9/9/39
f 5/5/40 11/11/41 10/10/42
f 6/6/43 7/7/44 11/11/45
f 7/7/46 8/8/47 12/12/48
f 8/8/49 9/9/50 12/12/51
f 9/9/52 10/10/53 12/12/54
f 10/10/55 11/11/56 12/12/57
f 11/11/58 7/7/59 12/12/60
